<svg xmlns="http://www.w3.org/2000/svg" viewBox="0 0 256 256" role="img" aria-labelledby="title">
  <title>VocabPix</title>
  <rect width="256" height="256" rx="56" fill="#e70013" />
  <path
    d="M74 64c-12.15 0-22 9.85-22 22v84c0 12.15 9.85 22 22 22h38.63c5.83 0 11.42 2.32 15.54 6.46L128 199l-.17-.54A22 22 0 0 0 112.29 192H74c-4.42 0-8-3.58-8-8V88c0-4.42 3.58-8 8-8h38.29c7.51 0 14.71 2.98 20.02 8.29L140 96.98V87c0-12.7-5.04-24.87-14.02-33.85S104.7 39 92 39H74Zm108 0h-18c-12.7 0-24.87 5.04-33.85 14.02S116 99.3 116 112v9.98l7.69-8.69A28.3 28.3 0 0 1 143.71 105H182c4.42 0 8 3.58 8 8v96c0 4.42-3.58 8-8 8h-38.63a22 22 0 0 0-15.54 6.46L128 224l.17-.54A22 22 0 0 1 143.71 217H182c12.15 0 22-9.85 22-22v-84c0-12.15-9.85-22-22-22Z"
    fill="#fff"
  />
</svg>
